<svg width="54" height="53" viewBox="0 0 54 53" fill="none" xmlns="http://www.w3.org/2000/svg">
<g clip-path="url(#clip0_1081_3)">
<path fill-rule="evenodd" clip-rule="evenodd" d="M16.2706 0.158295C19.0839 0.0287808 19.9809 0 27.1474 0C34.3138 0 35.2108 0.0311793 38.0218 0.158295C40.8327 0.285411 42.7514 0.733913 44.4303 1.38388C46.1883 2.04824 47.7833 3.08675 49.1024 4.42986C50.4455 5.74659 51.4816 7.33913 52.1436 9.09956C52.796 10.7784 53.2421 12.6972 53.3716 15.5033C53.5011 18.3214 53.5299 19.2184 53.5299 26.3825C53.5299 33.5489 53.4987 34.4459 53.3716 37.2593C53.2445 40.0654 52.796 41.9841 52.1436 43.663C51.4816 45.4237 50.4438 47.0189 49.1024 48.3375C47.7833 49.6806 46.1883 50.7167 44.4303 51.3787C42.7514 52.0311 40.8327 52.4772 38.0266 52.6067C35.2108 52.7362 34.3138 52.765 27.1474 52.765C19.9809 52.765 19.0839 52.7338 16.2706 52.6067C13.4645 52.4796 11.5457 52.0311 9.86685 51.3787C8.10623 50.7166 6.51105 49.6788 5.19235 48.3375C3.85016 47.02 2.81149 45.4256 2.14877 43.6654C1.49881 41.9865 1.0527 40.0678 0.923187 37.2617C0.793673 34.4435 0.764893 33.5465 0.764893 26.3825C0.764893 19.216 0.796072 18.319 0.923187 15.5081C1.0503 12.6972 1.49881 10.7784 2.14877 9.09956C2.81247 7.33932 3.85193 5.74494 5.19475 4.42746C6.51158 3.08555 8.10515 2.04691 9.86445 1.38388C11.5433 0.733913 13.4621 0.287809 16.2682 0.158295H16.2706ZM37.8083 4.90714C35.0261 4.78003 34.1915 4.75364 27.1474 4.75364C20.1033 4.75364 19.2686 4.78003 16.4865 4.90714C13.913 5.02466 12.5171 5.45398 11.5865 5.81614C10.3561 6.29582 9.47591 6.86424 8.55252 7.78763C7.67721 8.63919 7.00358 9.67585 6.58103 10.8216C6.21887 11.7522 5.78956 13.1481 5.67204 15.7216C5.54492 18.5037 5.51854 19.3384 5.51854 26.3825C5.51854 33.4266 5.54492 34.2613 5.67204 37.0434C5.78956 39.6169 6.21887 41.0128 6.58103 41.9434C7.00315 43.0874 7.6771 44.1259 8.55252 44.9773C9.40396 45.8528 10.4425 46.5267 11.5865 46.9488C12.5171 47.311 13.913 47.7403 16.4865 47.8578C19.2686 47.985 20.1009 48.0113 27.1474 48.0113C34.1939 48.0113 35.0261 47.985 37.8083 47.8578C40.3818 47.7403 41.7777 47.311 42.7083 46.9488C43.9386 46.4692 44.8189 45.9007 45.7422 44.9773C46.6177 44.1259 47.2916 43.0874 47.7137 41.9434C48.0759 41.0128 48.5052 39.6169 48.6227 37.0434C48.7498 34.2613 48.7762 33.4266 48.7762 26.3825C48.7762 19.3384 48.7498 18.5037 48.6227 15.7216C48.5052 13.1481 48.0759 11.7522 47.7137 10.8216C47.2341 9.59123 46.6656 8.71102 45.7422 7.78763C44.8906 6.91238 43.854 6.23876 42.7083 5.81614C41.7777 5.45398 40.3818 5.02466 37.8083 4.90714ZM23.7776 34.5155C25.6595 35.2989 27.7551 35.4046 29.7063 34.8146C31.6575 34.2246 33.3434 32.9755 34.476 31.2806C35.6086 29.5857 36.1176 27.5502 35.9161 25.5217C35.7146 23.4932 34.8151 21.5976 33.3713 20.1586C32.4508 19.2388 31.3379 18.5344 30.1126 18.0963C28.8873 17.6582 27.5801 17.4973 26.2851 17.625C24.9902 17.7527 23.7396 18.166 22.6235 18.835C21.5074 19.5041 20.5535 20.4122 19.8306 21.4942C19.1076 22.5761 18.6335 23.8049 18.4424 25.0921C18.2513 26.3792 18.348 27.6927 18.7255 28.938C19.1029 30.1833 19.7518 31.3295 20.6254 32.2939C21.499 33.2583 22.5756 34.0171 23.7776 34.5155ZM17.5585 16.7937C18.8178 15.5344 20.3127 14.5356 21.9579 13.8541C23.6032 13.1726 25.3666 12.8218 27.1474 12.8218C28.9282 12.8218 30.6916 13.1726 32.3368 13.8541C33.9821 14.5356 35.477 15.5344 36.7362 16.7937C37.9954 18.0529 38.9943 19.5478 39.6758 21.193C40.3573 22.8383 40.708 24.6017 40.708 26.3825C40.708 28.1633 40.3573 29.9267 39.6758 31.5719C38.9943 33.2172 37.9954 34.7121 36.7362 35.9713C34.1931 38.5144 30.7439 39.9431 27.1474 39.9431C23.5509 39.9431 20.1017 38.5144 17.5585 35.9713C15.0154 33.4282 13.5867 29.979 13.5867 26.3825C13.5867 22.786 15.0154 19.3368 17.5585 16.7937ZM43.7156 14.8413C44.0276 14.547 44.2774 14.193 44.4502 13.8004C44.623 13.4077 44.7153 12.9844 44.7215 12.5555C44.7278 12.1266 44.6479 11.7007 44.4866 11.3032C44.3254 10.9057 44.086 10.5446 43.7826 10.2413C43.4793 9.93797 43.1182 9.69858 42.7207 9.53731C42.3232 9.37604 41.8974 9.29617 41.4684 9.30242C41.0395 9.30868 40.6162 9.40093 40.2236 9.57372C39.8309 9.7465 39.477 9.99631 39.1826 10.3084C38.6101 10.9152 38.2967 11.7213 38.3089 12.5555C38.321 13.3897 38.6578 14.1863 39.2477 14.7762C39.8376 15.3661 40.6343 15.7029 41.4684 15.7151C42.3026 15.7272 43.1087 15.4138 43.7156 14.8413Z" fill="black"/>
</g>
<defs>
<clipPath id="clip0_1081_3">
<rect width="52.765" height="52.765" fill="white" transform="translate(0.764893)"/>
</clipPath>
</defs>
</svg>
