<svg xmlns="http://www.w3.org/2000/svg" viewBox="0 0 1231.81 989.89"><defs><style>.cls-1{fill:#564c43;}.cls-2{fill:#423932;}.cls-3{fill:#a4b195;}.cls-4{fill:#4b3a30;}.cls-5{fill:#fdfdfd;}.cls-6{fill:#5d5149;}.cls-7{fill:#f7faf4;}.cls-8{fill:#f8fbf4;}.cls-9{fill:#fafaf5;}.cls-10{fill:#f7f9f3;}.cls-11{fill:#f8faf3;}.cls-12{fill:#f5f3f1;}.cls-13{fill:#f6f6f3;}.cls-14{fill:#393532;}.cls-15{fill:#6c625d;}.cls-16{fill:#f6f8f1;}.cls-17{fill:#f6f7f6;}.cls-18{fill:#c8c1b7;}.cls-19{fill:#f5f1ee;}.cls-20{fill:#ccbfbb;}.cls-21{fill:#696969;}.cls-22{fill:#f4f7ee;}.cls-23{fill:#797979;}.cls-24{fill:#97908b;}.cls-25{fill:#8a8987;}.cls-26{fill:#fefefe;}.cls-27{fill:#dfe0e2;}.cls-28{fill:#fcfcf4;}.cls-29{fill:#564335;}.cls-30{fill:#b7a599;}.cls-31{fill:#947e6f;}.cls-32{fill:#bcbcbc;}.cls-33{fill:#47392e;}.cls-34{fill:#937e70;}.cls-35{fill:#fdfdfc;}.cls-36{fill:#e2e0dd;}.cls-37{fill:#5d4a42;}.cls-38{fill:#5c4945;}.cls-39{fill:#5b4943;}.cls-40{fill:#505344;}.cls-41{fill:#525141;}.cls-42{fill:#55554b;}.cls-43{fill:#485340;}.cls-44{fill:#4d503f;}.cls-45{fill:#604744;}.cls-46{fill:#624642;}.cls-47{fill:#5f4837;}.cls-48{fill:#f8f5f1;}.cls-49{fill:#524e38;}.cls-50{fill:#514e36;}.cls-51{fill:#5f483f;}.cls-52{fill:#664446;}.cls-53{fill:#4e4240;}.cls-54{fill:#68443b;}.cls-55{fill:#5e4552;}.cls-56{fill:#455745;}.cls-57{fill:#634549;}.cls-58{fill:#48523f;}.cls-59{fill:#4f5333;}.cls-60{fill:#41554a;}.cls-61{fill:#405934;}.cls-62{fill:#654345;}.cls-63{fill:#674440;}.cls-64{fill:#3b5944;}.cls-65{fill:#58575b;}.cls-66{fill:#757372;}.cls-67{fill:#485940;}.cls-68{fill:#594d53;}.cls-69{fill:#6e4046;}.cls-70{fill:#6a6a67;}.cls-71{fill:#4a5237;}.cls-72{fill:#65625f;}.cls-73{fill:#41553d;}.cls-74{fill:#3e5843;}.cls-75{fill:#664151;}.cls-76{fill:#624256;}.cls-77{fill:#713d48;}.cls-78{fill:#b9a697;}.cls-79{fill:#807676;}.cls-80{fill:#787878;}.cls-81{fill:#fcfdfd;}.cls-82{fill:#564336;}.cls-83{fill:#807f7f;}.cls-84{fill:#cbcbca;}.cls-85{fill:#b7a895;}.cls-86{fill:#4a3a30;}.cls-87{fill:#4d3a2c;}.cls-88{fill:#473b33;}.cls-89{fill:#49393c;}.cls-90{fill:#fcfdfc;}</style></defs><title>Ресурс 1</title><g id="Слой_2" data-name="Слой 2"><g id="Слой_1-2" data-name="Слой 1"><path class="cls-1" d="M229.9,252.92c-6.37-2.34-12.67-4.9-19.14-6.94-3.51-1.11-3.6-2.48-2.3-5.59,11.27-27,26.78-51.36,45.47-73.77,5.28-6.32,10.65-12.58,16-18.87.69-1.95,2.61-2.62,4-3.85a27.41,27.41,0,0,0,6-6c1.58-3.1,4.3-5,7-7h0c.82-1.22,1.58-2.52,3.15-2.95,18.95-16.72,38.5-32.67,59.38-47,47.16-32.33,97.67-57.29,153.63-70.37A397.19,397.19,0,0,1,617.57.68c36.76,2.17,72.58,8.82,107.15,21.53a133.86,133.86,0,0,1,42,24.38c6,5.26,11.8,11,11.17,20.13-.2,2.82,2,2.14,3.39,2.37,15.81,2.56,31.29,6.26,46,12.78,3.18,1.41,6.33,2.87,9.49,4.31a50.62,50.62,0,0,1,18.84,11.41,95.63,95.63,0,0,1,24.58,37c12.42,33.29,5.83,62.82-17.69,88.88-5.56,6.16-11.39,12.17-18.38,16.83-1.76,1.18-3.5,3.09-5.82,1.78s-1.62-3.79-1.78-5.9c-.47-6.27,1.28-12.49-.37-18.86-3.08-11.85-14.58-21.82-26.68-23.12-22-2.36-43.09,1.23-63.78,8.34-6.11,2.62-12.2,5.3-17.21,9.86a29.66,29.66,0,0,0-3.34,2.78c-8.35,11-10.21,23.5-8.33,36.72a75.84,75.84,0,0,0,9.38,26.54,65.57,65.57,0,0,0,3.88,6.5c.28.36.53.74.77,1.12,1.71,2.63,3.67,5.08,5.62,7.54,1.73,2.6,3.94,4.82,5.74,7.37.7.83,1.46,1.62,2.24,2.38s1.59,1.55,2.4,2.32a179.09,179.09,0,0,0,29.88,25.84,22.6,22.6,0,0,1,4.06,3.57c15.7,10.58,32.92,17.93,50.9,23.55,8,2.5,15.59,5.74,22.13,11,2.09,1.69,3.6,1.41,5.79.44,29.16-12.91,58.67-25.08,87.4-38.86,13.28-6.36,25.7-14.59,39.59-19.83,25-9.45,50.92-15.62,77.61-17,18.48-.92,36.23,3.78,52.81,12.3-1.34,2.41-3.17,1.07-4.79.53-27.94-9.32-55.12-7.6-81.28,6-26.49,13.78-41.61,36.14-47.66,64.94-5.9,28-1.95,55.22,7,82A161,161,0,0,0,1027,521.48a149.94,149.94,0,0,0,43.58,31.34c23.8,11.43,48.66,16.49,74.7,10.71,20.57-4.57,36.68-16.29,49.26-33.45,7.27-9.91,12.48-20.59,17-31.83.56-1.39,1.32-2.78,3.27-2.4-2.65,16.28-9.64,30.69-19.38,43.77-14.27,19.17-33,32.56-55,41.62-6.8,2.8-14,3-21.08,3.47-34.85,2.33-68.65,10.54-102.68,17.58-48.5,10-94.77,27.61-142,42-72.39,22-144.48,45-216.7,67.58-29,9.08-58.14,18-87.1,27.35-5.79,1.88-11.43,1.95-17.22,1.59-40.38-2.52-80.75-5.19-121.13-7.72-44.86-2.8-89.74-5.47-134.61-8.26q-58.58-3.64-117.14-7.41c-1.22-.07-2.55-.84-4.06.65,5.42,4.34,11.85,6,18.12,7.63,26.13,7,52.92,10.06,79.71,13.05,30.44,3.39,61,5.7,91.56,7.64,36.23,2.3,72.49,4.18,108.78,5.4q23.21.78,46.41,1.64c1.09,0,2.17.26,4.6.56a287.71,287.71,0,0,1-31.32,11.79c-45.71,14.67-92.61,24.13-139.85,32.27-41.94,7.23-84.13,7.73-126.45,5.72a171.69,171.69,0,0,1-22.76-2.9c-10-1.82-17.66-7-23.84-15C171.34,772.49,162.85,758,154,743.76c-11-17.66-19.6-36.24-24.31-56.55-.77-3.29-3.88-4.89-5.67-7.45-.8-1-.58-1.73.47-2.32.3-.07.71,0,.91-.22.54-.5,2.89,1.53,1.78-1.26,29.94,2.54,58-6.09,86-14.62,23-7,45.68-15.26,68.2-23.82,2.28-.86,4.49-1.89,6.62-2.8-.32-2.05-1.76-2.5-2.86-3.08-15.42-8.07-25.65-21.3-35.43-35.1q-16.87-23.81-32.63-48.34a20.92,20.92,0,0,0-7.07-6.78c-8.56-5.16-16.9-10.66-23.86-17.94-2.38-2.5-5.85-5.54-4.56-8.78.92-2.33,5.4-.85,8.27-.88,13.66-.11,27.32-.06,41-.07a3.3,3.3,0,0,1,1.89-.66,16,16,0,0,1-1.91-1.14c-35.19-8.61-68.42-21.44-96.56-45.11-11.81-9.93-21.73-21.48-28.6-35.43-.65-1.32-1.58-2.55-1.43-4.78,28.22,4.81,56.69,6.61,85.39,9.21-1.2-3-4-3-6.14-3.8-31.07-11.07-60-26-86-46.51C88,378,79.71,369.15,70.88,360.9c-1.93-.62-1.75-2.8-2.93-4-12.42-15.55-23-32.2-29.61-51.09-1.94-5.48-3.78-11-4.49-16.82a3.42,3.42,0,0,1,.18-3.48c12.91,9.12,27.38,15.34,41.48,22.26,1.48.73,2.95,1.49,4.42,2.23.29,1.62-.73,2.22-2,2.62-5.08-.31-8.86-4.23-14.11-4.82.23,5.25,2.46,9.75,5.87,13.78,10.47,19.15,25.22,34.46,42.13,48,15.86,12.72,33.4,22.32,52.05,30.17,18,7.57,36.24,13.88,55.47,17.58q35.5,6.84,71,13.58c10.92,2.07,21.83,4.27,32.83,5.87,4.45.65,5.07.12,3.77-3.95-1.93-6-1.44-12.61-4.31-18.4a3.49,3.49,0,0,1-.22-2.14c1.18-6.16.17-8.89-4.37-11.7-14.49-3.11-28.88-6.59-43-11.1-32-10.24-63.71-21.37-94.9-33.93-9.72-3.92-19.5-7.69-29.27-11.48-1.7-.66-3.5-1.12-4.94-2.34-.78-.8-1.41-1.65-1-2.86l2.85.1a10.84,10.84,0,0,0,2.76.44,3.37,3.37,0,0,1-1.7-1.48c-8.16-6.34-17.2-11.34-25.8-17-18-11.88-36.93-22.52-53.18-37C33.47,251.43,10.58,211.46,2.82,163A227.22,227.22,0,0,1,7,71.4c.32-1.28.71-2.55,1.25-4.43,5.47,9,10.51,17.67,15.9,26.12C61.53,151.58,108.52,200.48,167.9,237c35,21.47,72.13,37.67,112.36,46.5,4.66,1,6-.3,6.51-4.78C293.26,223.88,313.59,175,349.67,133a15.22,15.22,0,0,0,1.14-1.62c.06-.1-.06-.31-.23-1.12-14,1.86-26.74,6.56-37.65,15.8a1.19,1.19,0,0,1-1.34-.21,5.29,5.29,0,0,1-.62-3.55c-.77-4.65,2.58-5.29,5.9-6.17-1.52.7-3,1.3-4.57.51-.52-.26-1.28-.92-1.69-.11-2.16,4.28-4.41,1.76-6.73.2-2.57-1.72-3.21.36-3.67,2.15-.13.49,1.08.37,1.65.63a17.11,17.11,0,0,1,3.32,2.27,8,8,0,0,1-3,6.58c-1.72,1.56-1.49,2.95-.76,4.66-1.5,4.15-5.4,6.18-8.28,9.05-4.7,4.71-8.78,9.95-13.45,14.67-1.29,1.3-2.49,2.69-4.27,3.37-1.2.41-2.4.77-3.6,0a2.06,2.06,0,0,1-.32-2,3.3,3.3,0,0,1,1.57-1.24c1.71-.42,1.75-2.15,2.57-3.29.78-.83,1.77-1.52,1.84-2.91-1.07,0-.86,1.39-1.67,1.64a2.25,2.25,0,0,1-2-.09c-1.59-2.12-2.74-1-3.74.57-1.92,2.94-3.4,6-2.9,9.7,0,3-1.56,4.34-4.53,4.73-7.82,1-8.87,3-5.87,10.32a1.65,1.65,0,0,1-.11,1.78c-.13.18-.47.23-.56.38s.09.21.3-.15c1.16-.47,2.19-1.35,3.54-.81a2.6,2.6,0,0,1,.57,1.29,65.44,65.44,0,0,1-13,21.33c-4-.11-2.69,2.84-2.87,4.95-3.9,8.76-8.45,17.19-12.93,25.67C231.4,252.68,231,253.44,229.9,252.92Z"/><path class="cls-2" d="M818.84,835.07c-34.29-22.78-72.48-37.29-110.6-51.85-28.52-10.89-57.45-20.68-86.67-29.58-1.47-.45-3.28-.48-4.65-2.24,18.51-6.26,36.67-12.44,54.85-18.55q99-33.21,197.93-66.38c29.74-10,59.77-19.18,89.15-30.11,29.82-11.1,61-15.71,91.82-22.38a23.37,23.37,0,0,1,3.89,0c-4.41,4.78-8.44,8.88-12.16,13.24-10.59,12.4-21.14,24.85-31.5,37.45a7.84,7.84,0,0,1-7.82,3.11,165.34,165.34,0,0,1-33.19-8.62c-.24-.09-.36-.53-.51-.76,14.53-4.18,29.7-7.26,38.58-23.6-9.62,1.84-18.09,2.79-26.15,5.72-32.6,11.85-65.17,23.82-97.81,35.59-5.6,2-11.57,3-17.21,4.94-4.38,1.5-8.68,3.57-10.84,8.15-1.38,2.9-1.37,4.55,2.91,4,21.47-2.66,42.6-7.27,63.9-10.92,14.4-2.47,28.67-6.3,43.5-3.55,1.62.3,3.33.11,4.85.93,4.15,1.21,8.32,2.19,12.69,1.4,51.27,7.14,101,19.77,148.12,41.69,33.59,15.64,64.46,35.24,88.94,63.66a76.81,76.81,0,0,1,11,15.72c-6.33-2.54-11.88-5-17.57-7a238.82,238.82,0,0,0-71.53-14.48,10.82,10.82,0,0,1-7.9-3.39c-44.28-45.05-99.48-69.84-159.48-85.6-9-2.37-18.24.1-27.31.68-18.92,1.19-37.83,2.79-56.62,5.49-10.2,1.47-20.44,2.74-30.26,6.06-2.41.82-5,1.46-6.71,4.84,7.52-.74,14.37-1.39,21.21-2.1a455.55,455.55,0,0,1,97.18,0c24.2,2.66,48,7.08,70.92,15.36.09,1.92-1.13,1.25-2.11,1.07-20.67-2.44-41.34-4.83-62.21-4.11-13.16.46-26.24,1.58-38.79,6-1.69.59-4.22.94-4.56,2.58-.43,2,2.33,2.38,3.65,3.51,1.9,1.61,3.94,3.06,5.83,4.68.87.75,1.74,1.79,1.38,3-.42,1.46-1.85,1.12-3,1.18q-27.42,1.56-54.85,3.11c-2,.11-3.92.33-6.48.56,2,2.8,3.86,4.43,7.07,4.23,16.53-1,33,.8,49.35,2.42,26.16,2.58,52.29,5.5,78.39,8.58,32.87,3.89,65.7,8.07,98.54,12.16a8.06,8.06,0,0,1,3.74,1.23c5,3.8,9.91,7.76,15.64,12.28-55.34-6.94-108.63-7.86-156.7,27.91,9.55,2.78,17.8,4.95,25.9,7.59,27.82,9.07,53.6,21.92,74.49,42.88,15.91,16,29.09,33.8,34.34,56.33,6.41,27.53-6.39,55.22-26.59,70.75,1.29-8.38,2.84-16.26,3.19-24.31,1.48-34.12-9.73-63.87-31.57-89.56-17.83-21-41-27-67.62-21.71-14.32,2.85-25.08,12-36.27,20.19-22.8,16.78-44.22,35.28-65.31,54.15-3,2.67-4.58,3-7.72-.09-25.25-25.11-52.75-47.26-85-62.88-16.25-7.87-33.15-13.57-51.22-15.55-4.85-.53-8,.1-11,4.86-10,15.89-20.74,31.37-35.46,43.51A30.64,30.64,0,0,1,688,904.61c-2.74.81-4.15.68-3.58-3.15.88-5.89,1.39-12-.62-17.8-.77-2.23-1.85-4.65-4.44-4.92s-2.69,2.48-3.59,4.08c-20.47,36.26-47,66.85-83,88.59-7.43,4.49-8.8,4.93-12.5,5.13,22.07-41.1,35.93-84.76,40.26-131.71-53.64,64.8-121,102.4-206.15,105.7-.45-2.77,1-4.1,1.81-5.58,8-14.56,16.11-29.07,24.13-43.61.69-1.24,2.36-2.65,1.29-4-1.29-1.57-2.73.25-3.9.89-46,25.2-92.6,24.06-139.38,2.51-37.66-17.36-68.61-43.55-95.86-74.41-2-2.33-4-4.72-6.44-7.54,7.27,0,13.63,1.93,20.06,3.19,24.35,4.77,48.93,5.46,73.6,4.29,78.4-3.75,154.21-21,229-43.88,22.86-7,45.76-13.86,68.61-20.87a9.94,9.94,0,0,1,6.72,0Q700.81,799.3,807.66,837q6,2.1,12,3.91c2,.72,4.22,0,6.19,1.16C823.76,839.29,821.14,837.34,818.84,835.07Z"/><path class="cls-3" d="M976.79,227.92l1.29,4c1.68,1.25,1.39,3.59,2.75,5,2.89,8.06,5.81,16.1,8.67,24.17,3.21,9,5.76,18.27,8.29,27.52.76,2.78.14,3.73-2.66,4.87-19.43,7.83-39.23,14.79-58,24.25-8.66,4.37-17.41,8.56-26.15,12.75-9.75,4.68-20.31,6.51-30.82,8.36-9.35,1.65-18.84,1.06-28.28,1-6.36-1.22-13.18-.31-19-4-8.84-3.31-17.64-6.75-26.55-9.87-5-1.74-9-5.46-14.41-6.12A117.62,117.62,0,0,1,764,301.17a106.12,106.12,0,0,1-16.73-19,47.59,47.59,0,0,0-2.7-4.43,75.08,75.08,0,0,1-11-45.29,17.68,17.68,0,0,1,5.35-12,51.27,51.27,0,0,1,18.6-11.32,14.62,14.62,0,0,1,2.32-.67c11.48-3.73,23.38-5.07,35.33-5.74,7-.39,14.07.07,20.33,3.73,11.86,6.93,13.29,18.33,12.34,30.44a127,127,0,0,1-2.91,19.72c-.94,3.89.08,4.76,3.8,3.2,29-12.15,53.27-29.45,65.22-60.1,5.57-14.29,6.48-29.2,5.2-44.22a119.17,119.17,0,0,0-10.53-40.8c-.87-1.87-1.54-4,.14-5.59,2.06-1.89,3.62.29,5.16,1.36,4.11,2.88,7.5,6.56,11,10.11,3.68,4.39,8.67,7.69,11,13.2l.06.06a27.8,27.8,0,0,1,5.86,6.1c1.86,4,5.19,6.75,8,10,5.07,6,10.55,11.79,14,19h0c1.18.65,1.17,2.11,2,3a73.2,73.2,0,0,0,8.91,14c1.6,2.19,3.46,4.22,4.08,7a2.57,2.57,0,0,0,.25.9c1.29.63,1.2,2.05,1.75,3.1l10,19A23.9,23.9,0,0,1,976.79,227.92Z"/><path class="cls-4" d="M1214.76,495.85c-3.78,2-2.82,6.35-4.42,9.47-3.7,7.23-6.91,14.71-11.51,21.45-11.87,17.4-27.33,30.35-47.62,36.73-15.52,4.88-31.47,4.55-47.3,1.78-17.16-3-33.07-9.62-47.8-18.84a153.69,153.69,0,0,1-54.65-57.82,184.17,184.17,0,0,1-20.33-59.43c-3.92-24.67-2.74-49.06,7.34-72.15,7.28-16.66,18.35-30.42,34.28-40.37a108,108,0,0,1,48.87-16.41c11-.93,21.84.88,32.65,3.17,4.34.91,8,4.09,12.75,3.34,26.67,12.66,49.07,30.23,67.24,53.91a167.24,167.24,0,0,1,32,71.81C1220.3,453.64,1219.47,474.83,1214.76,495.85Z"/><path class="cls-5" d="M904.81,121.94c-5-4.28-9.25-9.42-15.26-13.12a5.28,5.28,0,0,0,0,5.18,123,123,0,0,1,11.16,60.84c-1.26,19.88-8.83,37.31-21.8,52.45-14,16.37-32.08,26.62-51.69,34.56-4,1.61-5.32.46-4.05-3.77,2.12-7,2.89-14.28,3.46-21.44,1.2-15-2.33-26.84-16.5-31-6.09-1.8-12.54-1.43-19.06-1.11-10.69.53-20.88,2.76-31.14,5.22a2.94,2.94,0,0,1,.15-1.85c.32-1.41-.51-2.42-1.7-2.27-2,.25-.6,1.67-.51,2.57.07.61.46,1.19.06,1.81-6.49,3.17-13,6.18-18.25,11.44a17.09,17.09,0,0,0-4.89,11.52c-1.07,16.19,3.06,31,11.08,44.95-3,2.16-4.18.12-4.92-1.89-.07,3.37.24,7,5.28,7.23,1.68,1.52.93,4.19,2.69,5.67.36.32.74.61,1.08,1-.08-.74-.92-.61-1.24-1.09-.89-1.53-1.09-3.3-1.87-4.86-.52-1.11.13-1.64,1-2,4.1,3.17,6.29,7.93,9.83,11.63,9.41,9.86,20.36,17.6,32,24.47a17,17,0,0,1,2.2,1.89c-2.17.92-4.49,3.51-5.83-1.14-.55-1.94-2.41-2.67-4.77-1.25a20.21,20.21,0,0,1-11-7.29c-.48-.62-1.88-2.49-3.06-.3a2,2,0,0,0,1.21,3.14c3.56,1.2,5.44,4,7.16,8,1.49-3.33,2.94-5.9,5.73-3.51,1,3.13.72,6.36,5,6,.83-.06,1.35.89,1.35,1.82a3.22,3.22,0,0,1-2.2,3.06c-2.9,1-5.9,2.16-9.57-.46,1.48,3.34,4.4,4.45,4.83,7.22A143.67,143.67,0,0,1,745.56,306c3.29-2.78,2.48-8.52,7.39-10.2-4,1.73-5.52,6.16-9.14,8.24a3.25,3.25,0,0,1-1.93-2.16c.92-3.13-1.09-6.2-.14-9.38a2.14,2.14,0,0,0-1.69-2.68c-1.74-.33-1.71,1.11-1.92,2.25a2.47,2.47,0,0,1-2.41,2.12,29.75,29.75,0,0,1-6-8.23,2.55,2.55,0,0,1,1.8-.45c1.17-.05,2.38-.17,2.32-1.76a1.78,1.78,0,0,0-1.57-1.63c-2-.31-1.1,1.49-1.47,2.33a3.83,3.83,0,0,1-1,1.58,15.2,15.2,0,0,1-4-6.1,4.88,4.88,0,0,1,3-3.66c2.5-1.31,3.67-3.75,4.69-6.19.42-1,.68-2.6-1.38-2.05-3.2.85-3.36-1.47-3.4-3.4a35.68,35.68,0,0,0-1.82-10.19c-1.21-3.78-3.47-7.65,1-11.2,1.43-1.12.4-3.82.7-5.77.46-3-.24-6.45,3.41-8.08.42-.16.71-.52,1.11-.71-.15-.31-.14-.16-.37.23-.32.57.12-.21-.37.28-2.55.38-2.93-1.37-3.38-3.23a60.15,60.15,0,0,0-4-12,5.11,5.11,0,0,1,2.76-2.31c3.21,2,4.58,5.92,7.94,7.94-2-5.78-2-5.73,4.38-6.71,1.88-.28,3.75-.77,5.79-1.06-5.94-2.9-6-3.68-1-9.88C756.34,196.65,768.69,195,781,193c9.84-1.66,19.63-.74,29.37.17,16.73,1.56,29.4,17.46,28,34.22-.32,3.81-.36,7.64-.39,11.46,0,1-.71,2.6.81,3,.73.18,1.82-.57,2.59-1.11,12.74-9,23.65-19.85,31.73-33.3,18-30,14.45-59.44-1.94-88.87-8.11-14.57-20.46-24.12-34.31-32.33,2.51-2.84,3.21-2.92,4-.21.53,1.72,1.47.74,2.22,1,2,.7,4.59-.44,6,3.12s3.71.93,4.69-1.41c.5-1.21.36-2.79,2.27-2.62,2.25.19,1.76,2,1.88,3.41s-.45,2.86.61,3.81,2.81.91,3.43,1.86c1.32,2.06-1.67.24-1.77,1.6-.06.81,1.88,2.89-1.11,2.49-.12,0-.46.58-.42.62,1.86,1.87,3.5,4.18,5.74,5.37,1.53.82,4.07,1.47,5.59-1.27,1.9-3.44,5.25-1.86,8.08-1.73a2,2,0,0,1,1.33,1.28c.28,1.28-1,1.92-1.78,1.94-4.32.14-3.65,3.44-4,6-.41,3.44,2.75,2,4.22,2.86,1.89,1.06,3.23,1.66,1.9,4.43-.61,1.27-1.47,4.18,2.31,5.17,2.85.74,2.45,5.15-.57,9.11,2.91,1,7.43,2.07,7.74-.54.41-3.48,5.57-7.91-.4-11.32a3.69,3.69,0,0,1-1.94-3.29c1.84-2.93-.77-3.66-2.43-4.72-3.09-2-2.94-4.67-.56-6.46,1.82-1.38,3.71-3.14,6.47-3.39,3.42-.32,5.55.73,6.19,4.06.17.91.33,1.57,1.11,1.92,3.52,1.55,5.12,4.92,7.51,7.57,1.43,1.59,3.65,2.42,3.71,5C907.51,123.1,906.15,120.87,904.81,121.94Z"/><path class="cls-3" d="M229.9,252.92,244,226.05c1-1.72,1-4,3-5.09,4.94-6.6,8.95-13.78,13-20.94,2.45-5.75,7.28-9.85,10.43-15.11,1.37-.14,1.9-.8,1.31-2.15,1-1.46,2.57-2.33,3.56-3.77,6-3.86,9.1-10.52,14.45-15.06,4-3.38,7.49-7.31,11.21-11,1.71-2.78,4.58-4.36,6.83-6.58,1.32-.57,2.64-1.16,4.11-.51l1,.2a50.17,50.17,0,0,1-7.1,15.09,8.59,8.59,0,0,0-1.8,3.94c-.71,3.56-.86,7.36-4.21,9.79a30.14,30.14,0,0,0-3.91,8,11.53,11.53,0,0,1-2,4h0c-1.18,1.45-.34,3.73-2.05,5-4.71,6.24-6.85,13.8-10.26,20.7-4.42,8.93-7.37,18.59-10.91,27.95a23.76,23.76,0,0,0-.78,3.36c-.49,4.41-1.06,8.76-3.89,12.5-1.28,1.69-.67,3.87-.57,5.81.14,2.77-1.08,3.55-3.56,3.13-2.9-.5-6-.39-8-3.21C246.08,258.62,237.46,257.15,229.9,252.92Z"/><path class="cls-6" d="M77.91,311.91l2-1.88,56,24.42c1.07.47,2.26.78,2.12,2.32l-.58.51c-5.09-.2-9.54-2.57-14.07-4.47-13.9-5.84-28-11.26-41.67-17.63C80.25,314.48,78,314.37,77.91,311.91Z"/><path class="cls-7" d="M253.91,262.13c1,.3,1.9.58,2.84.9,7.33,2.44,7,2.37,8.49-5.22.94-4.76,3.09-9.28,4.7-13.91.29,2.47.86,4.68,2.88,6.54,1.53,1.42,1.17,1.45-1.3,2.25-4.39,1.42-5.87,4.81-5.61,9.25.09,1.55.43,4.41-1.43,4.14-3.59-.53-7.55,1.82-10.73-1.14C253.32,264.53,253.84,263.09,253.91,262.13Z"/><path class="cls-8" d="M832.89,335.83l19,4c-.62.24-1.33.82-1.84.67-5.33-1.52-10.6-.39-15.89.13-1.23.12-2.41.76-3.07-1.31S832,336.84,832.89,335.83Z"/><path class="cls-9" d="M943.83,168.93a230.39,230.39,0,0,1-14-19c1.44.37,3-.8,3.89,2.17a12.66,12.66,0,0,0,7.25,8.23C944.35,161.72,944.41,165.52,943.83,168.93Z"/><path class="cls-10" d="M904.81,121.94c1.33-2.35,2.69,0,4,0,3.51,3.28,6.82,6.67,7,11.89Z"/><path class="cls-11" d="M976.79,227.92c-2.72-3.65-4.07-8-5.92-12,.62-.14,1.39-.59,1.84-.37C975.51,216.87,978,224.72,976.79,227.92Z"/><path class="cls-12" d="M818.84,835.07A52.11,52.11,0,0,1,830,843.49c-4.68.43-7.45-1.29-10.34-2.61,2.43-.46,2.24-1.82.9-3.17C819.75,836.91,818.9,836.29,818.84,835.07Z"/><path class="cls-11" d="M299.82,174.86l4.2-9.79a16.31,16.31,0,0,1,.08,8.25C303.1,177.63,301.51,175.24,299.82,174.86Z"/><path class="cls-13" d="M287,130.94a35.49,35.49,0,0,1-7,7C280.12,134.29,284.1,130.34,287,130.94Z"/><path class="cls-14" d="M983.8,681.05c-4.45,2.43-8.69.1-13-.59a.79.79,0,0,1,0-.44,1.33,1.33,0,0,1,.31-.37C975.42,679.42,979.57,680.53,983.8,681.05Z"/><path class="cls-15" d="M145,338.93l1.07,1.83c-3.85,1.08-6.53-.27-8.12-3.9l.16-.09C141.12,335.13,142.83,337.73,145,338.93Z"/><path class="cls-16" d="M958.83,192.91c-1.78-2.08-3.49-4.2-4.08-7C957.12,187.67,960,189.1,958.83,192.91Z"/><path class="cls-17" d="M273.9,143.9a8,8,0,0,1-4,3.85c-.26-.86-3.47-1.4-.16-2.72C271.13,144.48,272.53,144.33,273.9,143.9Z"/><path class="cls-10" d="M921.82,140a21.29,21.29,0,0,1-5.86-6.1C919,134.9,921.08,136.76,921.82,140Z"/><path class="cls-18" d="M127.15,676c.66,1.76,3.19,1.34,4.18,3.29-2.69.72-4.2-1.42-6.23-1.55-.41-.12-.57-.29-.48-.5s.22-.35.34-.35A1.65,1.65,0,0,1,127.15,676Z"/><path class="cls-19" d="M68,356.93a6.45,6.45,0,0,1,2.93,4C65.89,362.53,68.35,358.68,68,356.93Z"/><path class="cls-11" d="M980.83,236.9c-2.21-1-1.83-3.35-2.75-5C981,232.43,980.68,234.8,980.83,236.9Z"/><path class="cls-20" d="M148.88,338c1.68.59,3.38,1.16,4.47,4.07l-5.53-3Z"/><path class="cls-21" d="M125,676.85a3.43,3.43,0,0,0,.14.85,2.14,2.14,0,0,0-1.11,2.06l-3.41-2.69.56-.92Z"/><path class="cls-22" d="M291.89,191.89a6.59,6.59,0,0,1,2.05-5C293.45,188.65,296.1,191.69,291.89,191.89Z"/><path class="cls-16" d="M960.83,196.91a5.15,5.15,0,0,1-1.75-3.1c.9-.15,1.87-1.88,2.25-1C961.8,193.91,961.05,195.52,960.83,196.91Z"/><path class="cls-23" d="M1041.63,723l2.11-1.07a5.2,5.2,0,0,1,3.59,1.55A6.71,6.71,0,0,1,1041.63,723Z"/><path class="cls-9" d="M945.84,171.92a3.23,3.23,0,0,1-2-3C948.42,167.29,945.43,170.75,945.84,171.92Z"/><path class="cls-9" d="M946.5,166.24c1.26-.36,2.07-.44,2.71.23.13.14.08.75-.06.82C948.08,167.88,947.37,167.24,946.5,166.24Z"/><path class="cls-24" d="M230.82,512a4.67,4.67,0,0,1,3.59,1.42,4.62,4.62,0,0,1-3.57.38Z"/><path class="cls-5" d="M887.29,118.09c-2.26-.53-2.84-1.65-3.76-2.93C886,114.83,886,116.93,887.29,118.09Z"/><path class="cls-13" d="M290.11,128A7.18,7.18,0,0,1,287,131C287.52,129.44,286.91,126.69,290.11,128Z"/><path class="cls-22" d="M294,186.91a6.22,6.22,0,0,1,2-4C297.19,185.16,295.45,186,294,186.91Z"/><path class="cls-25" d="M34,285.54,33.85,289c-.82-1.4-1.76-2.8-.2-4.31a1.33,1.33,0,0,1,.32.34A1.53,1.53,0,0,1,34,285.54Z"/><path class="cls-26" d="M523.14,75.12c19.4-1.78,38.86-2.23,58.33-2.53,4.07-.06,5.94.14,4.81,5.28-1.58,7.17.57,13.63,6,19.13,9.7,9.9,21.35,15.28,35.09,15.6,12.12.28,24.46.93,34.38-8.37a79.06,79.06,0,0,0,11-12.81c.95-1.37,1.47-2.64,3.81-1.78,10.52,3.83,21.59,5.46,32.55,7.44,5.95,1.08,7.26,2.87,5.29,8.86-2.3,7-7.12,11.9-13.73,15-8.55,4-17.15,8-25.72,12-.72.92-1.48,1.74-2.53,1.25,2.73,0,5.75.59,8.76-.19,14-.7,27.36-3.55,39-11.89a21.78,21.78,0,0,0,7.87-10.65A74.15,74.15,0,0,1,746.7,82.4c1.64-1.55,3.21-2.66,5.69-2.36,24.7,3,49.06,7.29,71.52,18.74,18.43,9.39,33,22.5,39.25,42.94,5.64,18.46,2.88,36.56-3.57,54.29a69.48,69.48,0,0,1-7,14.82c-2.84-5.86-5.23-11.54-8.24-16.87-10.45-18.53-26.92-28.87-47.06-34.2-26.88-7.11-54.4-9.36-82-10.8-11.79-.61-23.6-1.57-35.43-.94a161.22,161.22,0,0,1-25,0c-23-.21-45.95-.56-68.76,2.8a36.46,36.46,0,0,0-17,6.77c-2.18,1.65-4.73,3.41-3.92,6.88s3.83,3.89,6.61,4.22c17.07,2,34,2.4,51.21,0,39.65-5.65,79.53-7.89,119.54-4.43,14.6,1.27,29.09,3.52,43.12,8a16.89,16.89,0,0,1,5.07,2.58c-10.7,0-21.26-.16-31.81.33-36.2,1.66-71.75,7.59-107,15.88-20.15,4.74-39.94,10.24-58.32,20-40.71,21.6-67.91,54.72-83.44,97.81a13.62,13.62,0,0,0-.41,1.94c-.71,1.83-.09,3.94-1,5.29a6,6,0,0,1,2.13-3.16,194,194,0,0,1,43.8-58.26,208.36,208.36,0,0,1,51.64-34.42c1.24-.59,3-2.22,4-.93,1.38,1.68-.8,2.88-1.79,4-37.39,42.75-57.91,92.75-63.41,149A332.43,332.43,0,0,0,560.9,510.64c1.76,5.31.65,7.75-3.92,10-5.26,2.53-10.52,4.87-16.38,5.69-6.71.94-12.72-.1-18.42-4.15-9.63-6.83-19.19-13.73-28.26-21.3-1.32-1-2.83-1.87-3.83-3.29-17.73-16.29-33.53-34.16-45.24-55.38-17.05-30.89-23.89-63.92-21.16-99.06,2-26,9-50.66,19.63-74.38.65-1.46,1.83-2.8,1-5.89-24.91,36.92-42.5,75.8-49.24,119.13-6.79,43.64-1.37,85.71,18.47,125.71l-1.53.68c-4.19-4.81-8.54-9.49-12.54-14.45-19.67-24.37-35.78-50.79-46-80.58-17.34-50.72-15.33-101.11,2.74-151.15a260.92,260.92,0,0,1,30.88-60.08c1.67-2.42,2.21-5.57,4.76-7.42.34-1.2,2.57-3.11-1.06-2.83-16.9,10.17-30.77,24-44.55,37.77-10,10-19.33,20.64-29,30.95-1.09,1.16-1.71,2.9-3.57,3.25-2.67-13.92,13-61.85,29-88.88,16.24-27.45,37-51,61.84-71.34-15.72,3.23-31.35,6.27-47.35,6.41a45.23,45.23,0,0,1-9.86.31c-2.09-.14-4.65-.42-3.55-3.8,10.27-8.25,21.69-14.71,33.14-21.07,28.34-15.74,56.41-32.05,86.51-44.29C489,30.74,515.94,25.4,543.29,22.06A500.33,500.33,0,0,1,625,19c37,1.55,72.56,8.87,105.67,26.09a80,80,0,0,1,18.26,12.95c1.3,1.23,2.74,2.4,3.43,4.85-13.86-.25-22.25,9.53-32,16.7a11.26,11.26,0,0,1-8.19,2.51c-7.35-.65-14.45-2.07-21.08-5.51-20-10.39-40.84-18.78-63.37-21.66-25.15-3.22-49.8,0-74,7.47A324.9,324.9,0,0,0,522,74c-.64,1.43-2.17,1.18-3.28,1.7C520.11,75.08,521.68,75.48,523.14,75.12Z"/><path class="cls-27" d="M961.92,381.12l-.2,1.72a44,44,0,0,0-3.4,18c.09,10.07-.62,20.15.28,30.23.46,5.12,2,9.89,3.15,14.8a233.08,233.08,0,0,0,31.55,75.6c2.12,3.32-.12,3.47-2.08,4.2L917.8,553c-94.17,35.1-188.2,70.57-282.59,105.06-23.37,8.54-47.9,13.91-71.9,20.73a35.79,35.79,0,0,0-3.84,1.08c-22.25,9.11-45.61,5.88-68.6,5.91-48,.07-95.94.07-143.87,2.25-9.8.45-19.8.47-29.25,3.15-8.29,2.35-16.33,5.61-24.78,7.54-52.85,12.11-104.14,8.59-153.45-15.12-2.36-1.14-4.8-2.13-7.39-3.27,2.12-1.38,3.85-.39,5.32.39,13.33,7.1,27.38,5.41,41.47,3.61A430.51,430.51,0,0,0,249,669c6.33-.11,12.36-2.12,18.55-3.13,25.66-4.15,50.87-10.46,75.79-17.86a615.15,615.15,0,0,0,83.2-31.12c27.8-12.85,55.95-24.91,83.95-37.33Q579,549.21,647.6,519.11q56-24.56,112-49.26,45.43-20.14,90.94-40.1c33.21-14.61,66.31-29.47,99.72-43.62,3.81-1.61,6.45-3.76,7.28-8.05.4-2,.66-5,4.19-4.34C963.49,376.16,962.11,378.65,961.92,381.12Z"/><path class="cls-28" d="M960.8,373.84a4.6,4.6,0,0,0-1.84,3.43c-.17,6.5-4.64,8.59-9.83,10.76-15,6.28-29.82,13-44.73,19.56q-34.87,15.26-69.75,30.47-26.24,11.49-52.43,23.12-31,13.69-62,27.42-41,18.06-82,36.06c-26.31,11.54-52.66,23-79,34.54-18.53,8.15-37,16.47-55.5,24.67-20.15,8.92-40.47,17.46-60.44,26.78-22,10.24-44.18,19.81-67,28-17.79,6.34-36,11.34-54.14,16.54-17.9,5.13-36.08,8.63-54.31,12-6.13,1.12-12.36,3.74-18.89,1.92,62.76-19.69,121.09-49.94,180.92-76.51,97.45-43.27,193.07-90.5,289.51-136q71.76-33.82,143.47-67.74c.9-.42,1.86-.69,2.79-1,6.11-1.7,11.65-4.78,17.28-7.51,20-9.68,40.17-19,60.27-28.43,9.75-4.58,19.28-9.64,29.26-13.74,1-.42,2.16-1.32,3.18-.13.75.87.31,2-.16,2.8a191.47,191.47,0,0,0-13.75,32C961.64,373.19,961.17,373.51,960.8,373.84Z"/><path class="cls-29" d="M319,313.89c1.21,1.08.81,2.34.54,3.69-3.33,16.37-3.34,32.86-1.85,49.42.43,4.8.29,9.64.51,14.46.11,2.7-1.71,2.62-3.33,2.2-10.39-2.73-20.74-5.65-31.14-8.38-11.67-3-22.72-7.82-34-12-12.22-4.55-24.24-9.61-36.29-14.58-9-3.69-17.52-8.2-26.3-12.21-6.14-2.81-12.13-6.61-18.25-9.49-12.27-5.78-23.43-13.31-35.08-20.06a168.76,168.76,0,0,1-17.42-11.21c-4.63-3.5-9.6-6.42-14.35-9.7-16.22-11.19-30.76-24.27-42.63-39.95-7.07-9.34-14-18.85-18.43-30.14-2.07-5.33-5.28-10.5-7.51-15.95-5.72-14-8.42-28.67-10.77-43.54-1.17-7.44.18-14.91-1.56-22.3-.59-2.5.71-5.5,1.35-8.22.5-2.12,2-1.8,3.5-1,1.45.55,1.79,1.84,2.1,3.16,5.42,22.94,17.45,42.38,32.42,60.11,26.88,31.84,60,56,95.67,77,38.2,22.41,78.48,40.32,119.84,55.94,9.19,3.47,18.39,6.92,27.75,10,7.45,2.41,7.42,2.47,10-5.19.84-2.53,1.56-5.09,2.31-7.65C316.6,316.48,316.89,314.53,319,313.89Z"/><path class="cls-29" d="M322.74,413.72c2.36.21,2.17,2.19,2.5,3.72,1.27,6,2.37,12,3.72,17.91.82,3.56-1,4-3.67,3.39-9.47-2-19-4.07-28.51-5.5-13.89-2.09-27.56-5.23-41.4-7.51-16.76-2.77-33.41-6.23-50-9.93-8.62-1.92-16.84-5.52-25.29-8.13-10.95-3.39-21.22-8.31-31.41-13.22A177.6,177.6,0,0,1,113.88,373c-7.47-6.05-14.61-12.42-21.58-19A93,93,0,0,1,73.39,329.6C72,327,68.73,325.41,69,321.87c2.24-.56,3.81.93,5.46,1.92a494,494,0,0,0,52.08,27.42c15.47,7,31.23,13.33,46.77,20.17,17,7.49,35,11.74,52.83,16.6,30.5,8.34,61.35,15.37,92,23.25C319.85,411.68,321.83,411.72,322.74,413.72Z"/><path class="cls-30" d="M319,313.89c-1.77,5.37-3.78,10.67-5.22,16.12-1.08,4.08-2.5,5.11-6.86,3.59-25.15-8.74-50-18.13-74.47-28.71-37.65-16.31-74.07-34.92-107.9-58.27-28.65-19.79-54.79-42.3-75.22-70.84-11-15.45-19.33-32.18-23.31-50.87v-4.19c5.55,7.39,10.48,13.88,15.34,20.42,9,12.16,18,24.4,27.07,36.49,4.66,6.18,11.15,10.47,17.07,15.29,40.37,32.9,82.89,62.61,129.83,85.5,23.07,11.24,46.86,20.72,72.18,25.79.65.13,1.28.39,1.94.48,4.68.65,8.24,1.48,11.92-4.27,5.61-8.75,16.22-11.58,26.65-16.21Z"/><path class="cls-29" d="M344.88,460.82c-.44,6.53,4,11.23,6.78,16.33,2.56,4.76,4,10.66,9.41,13.65,1.23.68,1,2.42.64,3.71-.54,1.74-2.15,1.52-3.35,1.2-13.44-3.53-27.14-1.69-40.69-1.65-7.19,0-14.35,1.93-21.71,1.89-16.95-.11-33.6-2.73-50.26-5.32-14.69-2.28-29.23-5.31-43.66-8.82a108.38,108.38,0,0,1-27.15-10.6A109.58,109.58,0,0,1,141,441.77c1.26-.89,2.57-.51,3.83-.08,18.32,6.23,37.55,7.11,56.49,9.75,22.27,3.11,44.68,4.85,67,7.45,20.38,2.38,40.76,3.46,61.27,1.69C334.61,460.14,339.8,459.48,344.88,460.82Z"/><path class="cls-31" d="M322.74,413.72Q289,405.31,255.19,396.9c-21.4-5.34-42.85-10.62-63.82-17.45-22.6-7.36-44-17.72-65.76-27.28A423.15,423.15,0,0,1,69,321.87c-5.6-3.8-5.64-10-7.21-16.12,5.95,1.27,10.78,4.43,16.12,6.16,19.68,9.09,39.65,17.51,60,24.95a17,17,0,0,0,8.11,3.9C177.72,353.15,209.21,366,241.44,377c22.15,7.52,44.3,15,67.11,20.27,3.5.81,7.31.45,10.46,2.64a18.25,18.25,0,0,1,4,12C322.91,412.49,322.82,413.1,322.74,413.72Z"/><path class="cls-32" d="M603.26,289.06c-1.87,6.46-3.67,12.3-5.24,18.2-4.1,15.39-3.62,31-1.8,46.62,3.3,28.19,11.76,54.92,24,80.49,3.44,7.2,8.28,13.68,11.13,21.2a83.69,83.69,0,0,1,3.14,9.45c1.39,5.6-.52,10.59-4.51,12.65-4.85,2.52-13.75,1.48-16.76-2.26-19.34-24-33.71-50.4-38.1-81.29-5.27-37.09,3.57-71,24.33-102C600.11,291.07,600.58,289.68,603.26,289.06Z"/><path class="cls-33" d="M360.85,517.78c2.08.24,2.61,1.84,3,3.5,3.17,13.88,8.34,27.14,13,41.41-7.56-1.29-14.88-2-22.05-3.22q-27.83-4.77-55.45-10.72a395,395,0,0,1-69.1-21.83c-1.1-.46-3.95-.71-1.22-3,5.31-3.05,11.35-2.31,16.94-2.44,19.73-.46,39.44-1.55,59.15-2.43,15.73-.71,31.48-1.22,47.18-2.62C355.16,516.22,358.25,515.62,360.85,517.78Z"/><path class="cls-3" d="M329.85,606.7c-9.26-.53-18.34,1.48-27.53,2.06-5.17.33-8.24-2.15-10.91-6-2.3-3.36-4.61-6.78-8.14-9.07-4.22-3.12-7.11-7.3-9.54-11.86-4-6.59-10.1-11.51-14.25-18,.41-4.39,1.54-5,6.77-3.44a1.12,1.12,0,0,1-.31.41c1.91,1,3.91.55,5.9.34,2.14-.55,4.13.3,6.17.69,10-1.06,18.5,4.49,27.9,6.1,10.74,3,21.46,6,32.22,8.92C346,579,353.84,580.93,361.7,583c1.42.57,3.18.29,4.27,1.7,2.67.78,5.32,1.63,8,2.33,1,.26,2.08.3,2.45,1.37.51,1.47-.86,1.85-1.67,2.63-5.74,5.61-13.16,7.71-20.52,9.92-.76.23-1.69,0-2.14.91-.25,2.31-2.18,2-3.68,2.37-3.27.41-6.43,1.67-9.79,1.52-2.56-.38-5.17-1.48-7.64.34A3.56,3.56,0,0,1,329.85,606.7Z"/><path class="cls-31" d="M344.88,460.82c-6.95,2.08-14.2,1.32-21.25,1.73a291.91,291.91,0,0,1-57.11-2.42c-13.94-1.93-28-2.72-42-4.31-15.13-1.72-30.19-4-45.33-5.6-13.1-1.35-25.87-3.82-38.21-8.45-1-.84-2.06-1.65-3-2.53-.18-.16-.13-.59-.28-1.35,7,.38,13.9.63,20.77,1.16,10.58.82,21.13,2,31.71,2.72,25.82,1.71,51.62,3.23,77.29,6.79,13.12,1.82,26.46,2.05,39.65,3.4,11.18,1.14,22.63.62,33.34,4.91C342.35,457.65,344.79,457.92,344.88,460.82Z"/><path class="cls-34" d="M360.85,517.78c-30.69,1.4-61.35,3.47-92.07,4.26-13.28.35-26.53,1.26-39.8,1.92-2.38-.41-5.07.52-7.07-1.62-.67-.72-1.72-1.35-1.49-2.42.27-1.26,1.54-1,2.49-1,5.31,0,10.59-.58,15.88-.91,15.39-1,30.81-1.28,46.2-2.27,17.36-1.11,34.72-2.2,52.1-3.09,6.15-.31,12.21-1,18.28.23a25.22,25.22,0,0,1,5.66,1.73C363.18,515.57,362.28,516.78,360.85,517.78Z"/><path class="cls-35" d="M619,83.23a5.38,5.38,0,0,0,2.47,4.34c7.39,5.84,18.58,5.78,26.25,0,2.38-1.78,5.48-4.11,7.95-1.14s.35,6.09-2,8.39c-10.32,10.13-31.55,9.91-41.57-.35a17,17,0,0,1-4.83-14.17c.46-4.8,3.06-7.9,7.66-9.43,4.41-1.46,8.92-1.11,13.38-.77,3.85.29,3.74,3.83,4,6.5.3,3.17-1.33,5.54-4.62,6C624.94,83.1,622.11,83.05,619,83.23Z"/><path class="cls-26" d="M725,213.93c1,.2,2.57-.53,2.52,1.42-.11,4.16,3.07,7.53,2.74,11.79-.1,1.27,1.38,1.69,2.62,1.76h0c-3.23,3.27-2.94,7.45-3,11.56,0,2.32.92,5.15-2.88,5.77-1.08.18-1.27,1.58-.81,2.51A34.6,34.6,0,0,1,729.9,267c2.32,1.13,2.34-3.72,4.45-1.33,1.47,1.67,1.29,3.74.27,6-1.86,4.07-5.18,6.31-8.84,8.32-11-18.54-14.83-37.83-6.21-58.45C720.79,218.56,722.26,215.78,725,213.93Z"/><path class="cls-36" d="M960.8,373.84c2.51-12.65,8.49-23.89,14.76-35.67a51,51,0,0,0-10.66,4.18Q934,357.07,903.15,371.72c-10.78,5.1-21.59,10.13-32.39,15.17-1.59.75-3.09,2.2-5,.88,15.19-8.18,31-15,46.59-22.41,22.47-10.73,45-21.26,67.56-31.87,1.15-.54,2.32-1.05,4.66-2.1-11.74,15.66-17.8,32.42-22.6,49.73C961.37,378.72,962.82,376,960.8,373.84Z"/><path class="cls-26" d="M744.87,201.91c.06.15.12.3.17.46,1,2.88-4,3.22-2.7,6.09,1.09,2.43,5.11.61,6,4.33-3.39.43-6.8.92-10.22,1.25-1,.09-2.15-.4-2.7.6s.23,2,.88,2.65c1.2,1.28,2.57,2.84.73,4.11-2.34,1.6-2.62-1.14-3.78-2.34-2.18-2.26-4.44-4.37-5.47-7.44C732.62,206.9,738.5,204,744.87,201.91Z"/><path class="cls-37" d="M308,147.07a15.61,15.61,0,0,1-7,5.86c-2.12-1.14-3.5-2.66-.68-4.29s2.83-4.69,4.67-6.71c-.53-1.38-2.32-.88-3-2-1.47-.69-2.45,2.88-3.64.78s1.61-3.67,2.12-5.75c.36-1.45,2.16-1.15,3.31-.16a23.61,23.61,0,0,0,3,2.64c.9.54,2.22,1,2.66-.81.63-2.65.67-2.66,2.86-1.34,1.42.86,2.42,2.25,3.61-.69.48-1.19,2.36,1.3,4.07,2.14-3.3,1.22-8.29-.59-8,5.21C310,143.18,309.18,145.26,308,147.07Z"/><path class="cls-38" d="M272.06,183.26c1.29,1.64-.19,1.48-1.1,1.69-2.61,2.6-4.56,5.75-8.78,6.61s-2.18,4.66-2.26,7.35a6.7,6.7,0,0,1-4,1h0c.39-2.55-2.48-3.76-2.19-6.71.61-6,1.27-7.26,7.33-7.25,2.91,0,5.49,0,4.86-4,1.87-2.23,1-7.2,6.16-6.12a1.68,1.68,0,0,1-.16,2.12c0,.67,0,1.35,0,2A2.69,2.69,0,0,1,272.06,183.26Z"/><path class="cls-36" d="M961.75,445.86c-.46-.19-1.3-.37-1.31-.57-.18-6.39-3.48-12-3.07-18.89.52-8.56,1.24-17.3,0-26-.46-3.35-.54-7.51,1.75-10.88,1.3-1.93.52-4.2.66-6.31.19-2.85,1.21-.58,1.9-.34C957.63,403.85,958,424.85,961.75,445.86Z"/><path class="cls-39" d="M279.94,595.83c-3.1,0-4.39-1.93-6.5-4-2.57-2.57-2.3-7.16-6.43-8.27-1.33-.36-1.38-2-1-3,1-2.19,1.41.08,2.15.38s1.73-1.92,2.75-.11c3.63,2.38,5.54,6.42,8.93,9.12C281.52,591.25,281.61,593.84,279.94,595.83Z"/><path class="cls-26" d="M735.72,294.19c.5-.63,1.57-1.54,1.42-1.85-1.42-2.83,0-4.1,2.51-4.34s3.83,2.72,3.51,3.92a13.26,13.26,0,0,0,.58,8.18c.38,1.1-.77,1.66-1.86,1.78A28.29,28.29,0,0,1,735.72,294.19Z"/><path class="cls-40" d="M259.92,198.91c-3.51-4.56-2.35-8.12,3.32-8.91,3.6-.49,4.09-5,7.72-5.05-2.52,5.85-6.72,10.47-11,15.07C260,199.65,259.94,199.28,259.92,198.91Z"/><path class="cls-41" d="M305.91,567.92c-9.52-1-18.49-4.59-27.9-6.1l3.95-2a5,5,0,0,1,6,0c4.84,3.56,10.06,6.1,16.25,6.1C305.39,565.93,305.78,566.86,305.91,567.92Z"/><path class="cls-41" d="M266.25,560.38c-2.28,1.09-6.39-1.39-6.77,3.44-2.43-2.62-6-1.58-9.12-2.53,1.78-3.34,6.57.82,7.58-3.45a7.86,7.86,0,0,1,8,0c3.11.24,6.32-.48,10.28.77C272.53,560.86,269.08,558.9,266.25,560.38Z"/><path class="cls-42" d="M337.84,604.6,348,603c.6.91,2.54.12,2.45,1.93-1,2.46-3.6,2.62-5.45,3.87a19.32,19.32,0,0,1-11-.92c-1.43-.16-3.07.44-4.11-1.15A5.71,5.71,0,0,0,330,606C332.25,603.51,335.1,604.39,337.84,604.6Z"/><path class="cls-26" d="M743.81,304c.74-4.2,5.53-5.81,6.36-10.05.26-1.3,1.62-.47,2.53-.28a2.75,2.75,0,0,1,2.46,2.11,1.51,1.51,0,0,1-1.64,1.94c-3.16,0-3.91,2.22-4.1,4.58-.2,2.58-1.74,3.32-3.86,3.66C745,305.34,744.39,304.69,743.81,304Z"/><path class="cls-39" d="M257.64,569.38c1.3,4.14-.4,5.09-3.64,4.45-1.4-.28-4.39.61-3.58-1.7.91-2.58,2.2-6.15,6-6.21C260,565.86,257.09,568.68,257.64,569.38Z"/><path class="cls-39" d="M258,576.26c-.27-4.23,2.56-2.1,3.92-2.32,1.57-.25,4.23-.7,3.81,2.16-.35,2.4-2.27,3.72-5,3.74C257.63,579.87,258,577.77,258,576.26Z"/><path class="cls-43" d="M271.91,175.88c-3.63.38-3,5-6,6-.42-4.69,1.49-8.48,4.7-11.67.72-.72,1.43-2.28,2.7-1.55,1.05.61.5,2.1.6,3.21-.24.84-.66,1.6-.93,2.42A2.9,2.9,0,0,1,271.91,175.88Z"/><path class="cls-44" d="M279.94,595.83c1.36-6-5.26-7.35-6.75-11.71-.42-1.22-2.47-1.5-2.25-3.29l2.79,1a45.12,45.12,0,0,1,9.53,11.86C282,594.16,281.62,596,279.94,595.83Z"/><path class="cls-45" d="M361.93,575.84c-.13,1.74.5,3.91-2.41,4-2.56.06-5.1-.34-6.89-2.17-1-1.06-.28-2.21,1.34-2.16,1.32,0,2.64.23,4,.35A2.91,2.91,0,0,1,361.93,575.84Z"/><path class="cls-46" d="M275.94,553.84c.31-.56.57-1.55.94-1.59a92.9,92.9,0,0,1,16.79-.18c-1.07,2.39-2.59,1.5-3.74,1.78A21.63,21.63,0,0,1,275.94,553.84Z"/><path class="cls-43" d="M275.94,553.84h14c-.17,1-.61,1.9-1.81,1.91-4.07,0-8.15.26-12.2-.06C273.71,555.53,273.8,554.46,275.94,553.84Z"/><path class="cls-47" d="M298.67,611.16c4.84-1.64,9.7-1.3,14.59,0Z"/><path class="cls-29" d="M323,411.87q-2-6-4-12a11.16,11.16,0,0,1,5.33,12.19A12.13,12.13,0,0,1,323,411.87Z"/><path class="cls-48" d="M343.77,106.52c.61,3.26,3.12,3.44,5.64,3.36s5.19-.51,7.77.13c-5.75,1.33-11.54.81-17.57.79C340.28,108.16,342,107.29,343.77,106.52Z"/><path class="cls-49" d="M337.28,569.14c-4.16-.8-8.46,3.1-12.54-.27C329,567.68,333.15,567.45,337.28,569.14Z"/><path class="cls-50" d="M238,221.89v-2c-.79-2.1-.1-2.75,2-2,2.75.36,1.71-5.19,5.87-3.25-3.56,2.28-4.09,5.63-3.86,9.25C239.52,225.4,239.16,222.8,238,221.89Z"/><path class="cls-51" d="M239.93,217.89a1.83,1.83,0,0,0-2,2c-1.48-.65-2.29,2.71-3.63.86s1.43-3,1.61-4.71c.14-1.3.79-2.21,2.21-2C240.63,214.39,239.71,216.43,239.93,217.89Z"/><path class="cls-52" d="M345.93,607.83c-.24-2.9,4.2-1.12,4-4,2.33-1,4.66-1.46,7,0,1.41,1.72.06,1.83-1.17,2-1.54.18-3.52-.51-3.83,2-1.66,1.48-3.52,1.07-5.39.58Z"/><path class="cls-53" d="M654.9,148l25,0A71.19,71.19,0,0,1,654.9,148Z"/><path class="cls-54" d="M334,607.85l12,0h0a1.33,1.33,0,0,1,0,2h0a6.4,6.4,0,0,1-8,0A5.54,5.54,0,0,1,334,607.85Z"/><path class="cls-55" d="M345.93,611.83c-1.82,2-7.87,3-9.25,1.33-.8-1,.59-1.09,1.26-1.34A7.84,7.84,0,0,1,345.93,611.83Z"/><path class="cls-56" d="M308,147.07c-.25-2.9-.45-5.77,3.93-5.14l0,3.91A6.59,6.59,0,0,1,308,147.07Z"/><path class="cls-57" d="M275.93,171.9c.28-1.32-.74-3.19,1.31-3.78,1.47-.41,1.46,1.26,1.69,1.92.93,2.62-1.2,3.17-3,3.87A1.41,1.41,0,0,1,275.93,171.9Z"/><path class="cls-58" d="M361.93,575.84h-4c.22-1.45-.68-3.64,1.76-3.82C362.6,571.81,361.71,574.24,361.93,575.84Z"/><path class="cls-59" d="M337.14,573a11.47,11.47,0,0,1,8.66-.52C343.18,574.53,340.9,573.92,337.14,573Z"/><path class="cls-60" d="M345.92,609.82c0-.66,0-1.33,0-2h6c1.36.35,2.65,1.15.43,1.81C350.37,610.22,348.07,609.8,345.92,609.82Z"/><path class="cls-61" d="M345.93,611.83h-8c0-.65,0-1.31,0-2l8,0C345.92,610.49,345.93,611.16,345.93,611.83Z"/><path class="cls-62" d="M265.93,557.83h-8C260.6,554.63,263.27,554.59,265.93,557.83Z"/><path class="cls-38" d="M275.93,171.9c0,.67,0,1.34,0,2-.19,1.57.68,3.68-2,4-1.33-1-.61-3-2-4a1.82,1.82,0,0,1,2-2Z"/><path class="cls-63" d="M257.94,551.84c2.67-3.2,5.34-3.27,8,0A7.9,7.9,0,0,1,257.94,551.84Z"/><path class="cls-64" d="M257.94,551.84h8C263.27,555.07,260.6,555.05,257.94,551.84Z"/><path class="cls-65" d="M247,221c-.46,2-1.13,3.9-3,5.09C244.7,224.16,239.81,219,247,221Z"/><path class="cls-66" d="M510.93,312.89c-.74,2.43-1.44,4.88-4,7.4.79-3.86,1.28-6.85,2.91-9.53C510.06,311.54,510,312.5,510.93,312.89Z"/><path class="cls-67" d="M356.92,603.83h-7c-.95.36-2,1-2-.87,1.32-.58,3,0,4.14-1.14C354,601.82,356,601.57,356.92,603.83Z"/><path class="cls-68" d="M366,584.67c-1.72.18-2.92-.94-4.27-1.7,2.59-.45,5.17-1.49,7.85-.19C368.9,584.57,366.71,583.22,366,584.67Z"/><path class="cls-69" d="M287.92,559.83h-6C284,556.71,285.93,556.77,287.92,559.83Z"/><path class="cls-51" d="M238,221.89l4,2c-.17,1.7-1.21,2.3-2.71,1.78C237.34,225,238.16,223.23,238,221.89Z"/><path class="cls-70" d="M681.16,134.07c-3,1.11-6.08.82-9.49.83.85-1.47,2.1-1.61,3.26-1.89C676.77,134.73,679.15,133.29,681.16,134.07Z"/><path class="cls-71" d="M376.32,596.68c-2.52,1.45-4,1.46-5.75.07C372.25,595.31,373.8,595.78,376.32,596.68Z"/><path class="cls-72" d="M390.82,191.85a5.83,5.83,0,0,1,4.06-1.9c0,2.35-1.57,3.49-3,4.73C391.87,193.61,392.05,192.47,390.82,191.85Z"/><path class="cls-73" d="M272.06,183.26c0-1.11-.07-2.22-.1-3.33l3.33-.94C275.53,181.41,273.62,182.2,272.06,183.26Z"/><path class="cls-74" d="M301.93,139.91c1.1.53,3.84-1.38,3,2C303.49,141.92,302,142,301.93,139.91Z"/><path class="cls-38" d="M256,199.91c-.27,1.16.6,2.68-1.33,3.61-.78-1.78-1.14-3.14,1.32-3.62Z"/><path class="cls-75" d="M344.05,567.83c.32.21,1.1.44,1.24.87.29.91-.62,1.06-1.21,1s-1.42-.34-1.55-.72C342.23,568.1,343.14,568.09,344.05,567.83Z"/><path class="cls-76" d="M332.1,573.76c-.66,0-1.41,0-1.57-.78-.21-.94.66-1,1.27-1.05s1.41,0,1.57.77C333.58,573.66,332.7,573.6,332.1,573.76Z"/><path class="cls-77" d="M272,173.93c2.69.31,1.79,2.41,2,4h-2l0-2C271.93,175.23,271.94,174.58,272,173.93Z"/><path class="cls-78" d="M271.84,561.13c-2,1-4,1.37-5.9-.34Z"/><path class="cls-79" d="M490.09,497.55a7.94,7.94,0,0,1,3.83,3.29A3.91,3.91,0,0,1,490.09,497.55Z"/><path class="cls-80" d="M523.14,75.12c-1.43,1-3,.72-4.76.25L522,74C522.35,74.39,522.74,74.76,523.14,75.12Z"/><path class="cls-26" d="M747.89,281.85l-1,2h0c-2.09-.26-4.39.72-6.21-1-2.19-2.06,1-5.56-1.92-7.46a6.34,6.34,0,0,1,1.18-.62c.78-.23,1.79-.58,1.88.71.21,2.84,2.29,2.29,4.05,2.37A5.76,5.76,0,0,1,747.89,281.85Z"/><path class="cls-26" d="M757.91,210c-.32-.37-.94-.78-.89-1.09.26-1.72-2.82-3.33-.7-4.74,1.75-1.15,3.8.25,5.21,1.65,2.47,2.46-1.72,2.34-1.62,3.92Z"/><path class="cls-81" d="M1116.32,557.17c-22.38-.6-45.49-10.83-66-27.2-28.24-22.51-44.48-52.51-52.4-87.24-5.33-23.35-6.35-46.86.52-70.13,14.93-50.55,68.37-75.73,117.09-55.15,30.34,12.82,52.12,35.26,68.19,63.33,17.11,29.9,24.6,62.14,19,96.51-4.82,29.27-18.1,53.77-43.81,70.15C1147.26,554.83,1134.25,557.3,1116.32,557.17Z"/><path class="cls-26" d="M765,311.25c1.2-1.2.94-4.28,2.85-4.45s4.36,2.29,4.79,3.33c1.49,3.67,4,4.78,7.4,4.79,1.7,0,1.23,1.28,1.42,2.05.54,2.19-1.32.78-1.55.72-2.29-.62-2,1-2.07,2.26-.11,1.47-.7,2.66-2.31,2.72s-1.48-1.42-1.75-2.5a7.85,7.85,0,0,0-6.4-6.2C765.9,313.67,764.78,313.32,765,311.25Z"/><path class="cls-26" d="M784.62,201.27c-3.79.3-6.13.4-8.59,2.1-3.59,2.47-7.31-1.37-11-2.19-1.42-.32-2.55-1.23-4.07-.35-.94.54-2,.73-2-.91,0-1.19.5-1.62,1.82-1.65,5.48-.13,11.08-3.32,16.34,1.34C778.55,200.89,781.3,199.28,784.62,201.27Z"/><path class="cls-26" d="M729.78,286V280c2.42.47,4.67,1,5.86,3.22.61,1.14-.27,2-1.14,2.95-1.8,1.91-3.21.68-4.76-.16Z"/><path class="cls-26" d="M754.82,304.13c1.73.42,3.11,1.11,3,3.22-.05,1.23-.24,2.31-1.78,2.43-2.13.17-2.86-1.62-3.4-3C752.05,305.25,753.64,304.67,754.82,304.13Z"/><path class="cls-26" d="M734.3,258.6c-1.93-2.73-3.42-4.32-2.82-7.07C734.44,252.69,734.53,254.89,734.3,258.6Z"/><path class="cls-26" d="M746.87,283.89c2.35,1,2.82,2.74,2,5h0c-2.91-.77-3.24-2.57-2-5Z"/><path class="cls-26" d="M748.87,288.89c2.17-1.08,2.53.73,3.74,2.21-2.33.33-3.49-.21-3.74-2.21Z"/><path class="cls-26" d="M732.87,228.9c.34-1.18-1.43-2.32.15-3.8,1.09,1.43,1.2,2.6-.15,3.8Z"/><path class="cls-82" d="M780,98.66a75.55,75.55,0,0,1-12.81,12.44,11.15,11.15,0,0,1-9.8,2.17c-2.71-.69-5.18-1.88-5.44-5s1.3-5.34,4.26-6.57C763.54,98.63,771.27,98.6,780,98.66Z"/><path class="cls-83" d="M444.94,263c.29-2.62,1.45-3.79,3.07-6C448.08,260.1,447.29,261.47,444.94,263Z"/><path class="cls-84" d="M506.42,324.48c-.25.88-.5,1.76-.83,2.89C504.45,325.89,505,325,506.42,324.48Z"/><path class="cls-85" d="M337.84,604.6,330,606C332,601.86,335.05,604.08,337.84,604.6Z"/><path class="cls-86" d="M1191.68,462.84c-2.44,32.89-14,61-43.78,78.27-17.31,10-36.23,9-54.68,2.91-38.39-12.7-62.91-39.9-77.23-76.73-11-28.14-15-57.19-7.34-87,9.8-38.4,42.29-61.83,81.66-58.31,19.2,1.71,35.55,10.68,49.87,23.12,30.82,26.78,47.76,60.76,51.59,101.34a8.36,8.36,0,0,1-.1,1.49c-.93,1.14.35,3-1.44,4.16-3.44-3.88-.57-8.85-2.33-12.87a8.4,8.4,0,0,1-.7-1.24c-.53-1-.32-2.22-1.27-3.07-1.16.87-.19,2.49-1.21,3.38a4.4,4.4,0,0,1-1.34.61,6.71,6.71,0,0,1-3.79-.27c-1.94-1-1.95-3-2.25-4.74-4.37-25.76-16.13-47.93-33.89-66.72-14.52-15.35-31.85-26.51-53.54-28.47-18.47-1.67-34.93,4-48.77,16.36-15.91,14.2-22.08,32.81-23,53.53-1.19,27.39,5.23,53,19.74,76.18s34.44,39.53,61.4,46.37c30,7.61,53.78-5,68.3-30.87a85.34,85.34,0,0,0,9.46-25.68c.37-1.9.37-4.06,2.33-5.31a5.07,5.07,0,0,1,3.9-.1,2.73,2.73,0,0,1,1.14,1c.84,1.38.93,3.12,1.87,4.57,4-5.47.73-12.36,3.6-18.56C1192.2,458.6,1190.55,461,1191.68,462.84Z"/><path class="cls-87" d="M1187.81,437.86c2.44.34,2,2.25,2,3.82,0,3,0,5.93,0,9.91.88-1.77,1.37-2.74,1.86-3.7q0,7.47,0,14.95c-1.69-1.25-.11-3.52-1.9-5.44.16,7.37.41,14.25-2.91,20.5-2.77-3.8-2.77-3.8-3.06-8,2.15-1.93,2.47-4.48,2.47-7.17,0-6.26,0-12.52,0-18.78C1186.34,441.8,1186.07,439.57,1187.81,437.86Z"/><path class="cls-5" d="M1179.62,469.79c-2.08,8.71-4,17.44-8,25.58-6.56,13.41-15.16,25.07-28.49,32.4-17.48,9.6-35.67,8.6-53.57,1.76-32.58-12.46-53.14-36.71-64.7-68.93-8.41-23.45-11.26-47.51-5-72.07,11.26-44.44,59.08-65.08,98.91-42.07,33.94,19.61,52.83,50,60,88.15.21,1.12.59,2.21.89,3.32,2.94,3.41,1.71,7.67,1.94,11.47C1182,456.22,1182.78,463.24,1179.62,469.79Z"/><path class="cls-88" d="M1187.81,437.86c0,9.39-.11,18.77,0,28.15.06,3.12-1.15,4.2-4,3.84h0c-.29-.4-.75-.74-.81-1.23a119.51,119.51,0,0,1,0-29.52c.06-.49.52-.84.81-1.24h1a2.13,2.13,0,0,1,3,0Z"/><path class="cls-87" d="M1183.81,437.86v32l-4.19-.06a194.78,194.78,0,0,0,0-31.86Z"/><path class="cls-89" d="M1010.08,420.81V406.6c2.13,4.75,2.14,9.53,1.22,14.32Z"/><path class="cls-87" d="M1187.81,437.86h-3a10.85,10.85,0,0,1-.62-1.34c-.6-1.77-.14-3.74,1.55-4s1.86,1.88,2,3.34A18.45,18.45,0,0,1,1187.81,437.86Z"/><path class="cls-86" d="M1168.14,454c.2,16.37-3.74,31.63-12.58,45.49-14.39,22.55-37.2,30.11-62.39,20.69-21.68-8.1-37.72-22.71-48.35-43.09-13.69-26.21-19.49-53.83-11.3-82.9,11.07-39.35,53.33-54.26,87.14-31.22C1149.84,382.8,1168,417.56,1168.14,454Z"/><path class="cls-90" d="M1109.64,508.2c-17.4-.89-32.92-8.86-45.21-22.32-21.55-23.6-30.09-51.64-23.45-83,7.06-33.37,40.81-48.76,71.33-33.56,35.55,17.7,55.9,65.86,43.21,103.42-5.56,16.46-15.42,29.43-33.24,34.33C1118.55,508.06,1114.71,508.08,1109.64,508.2Z"/><path class="cls-4" d="M1046.22,421.55c.34-14.7,3.24-28.6,14.35-39.22,16-15.31,38.17-16.43,56.83-1.54,26.63,21.27,37.54,49.29,31.41,83.16a50.49,50.49,0,0,1-14.71,27.26c-9.38,9.2-20.76,11.9-33.16,9-24.23-5.76-39-22.15-48.11-44.49A94.38,94.38,0,0,1,1046.22,421.55Z"/></g></g></svg>